<svg xmlns="http://www.w3.org/2000/svg" width="311.444" height="307.842" viewBox="0 0 311.444 307.842">
  <g id="Gruppe_20298" data-name="Gruppe 20298" transform="translate(-0.673 -0.673)">
    <g id="Gruppe_20299" data-name="Gruppe 20299">
      <path id="Pfad_14" data-name="Pfad 14" d="M71.048,86.717A35.274,35.274,0,1,1,35.774,51.443,35.273,35.273,0,0,1,71.048,86.717" transform="translate(0.173 17.827)" fill="#c9dbfb"/>
      <circle id="Ellipse_1" data-name="Ellipse 1" cx="35.274" cy="35.274" r="35.274" transform="translate(0.673 69.269)" fill="none"/>
      <path id="Pfad_15" data-name="Pfad 15" d="M221.926,118.193c5.738,12.367,18.707,19.977,33.332,19.556a35.274,35.274,0,0,0-1.04-70.533c-2.016,0-3.916,0-6.906.222-18.088.984-37.3,4.15-52.457-6.23-5.281-3.618-12.61-17.225-15.992-22.836-1.6-2.647-3.233-5.476-4.488-7.569-2.5-4.176-4.72-8.042-7.209-11.831a57,57,0,0,0-5.079-6.72C158.282,7.943,151.94,5.3,146,2.552s-4.687-1.022-7.684-1.311C125.492.006,92.606-.239,81.758,4.988,50.591,20.009,59.839,67.076,92.735,70.8c26.663,3.014,58.777-2.484,85.865-.058,25.063,2.243,33.723,25.386,42.027,44.518" transform="translate(21.705 0.173)" fill="#c9dbfb"/>
      <path id="Pfad_16" data-name="Pfad 16" d="M221.926,118.193c5.738,12.367,18.707,19.977,33.332,19.556a35.274,35.274,0,0,0-1.04-70.533c-2.016,0-3.916,0-6.906.222-18.088.984-37.3,4.15-52.457-6.23-5.281-3.618-12.61-17.225-15.992-22.836-1.6-2.647-3.233-5.476-4.488-7.569-9.632-16.063-15-27.534-36.063-29.562C125.492.006,92.606-.239,81.758,4.988,50.591,20.009,59.839,67.076,92.735,70.8c26.663,3.014,58.777-2.484,85.865-.058,25.063,2.243,33.723,25.386,42.027,44.518" transform="translate(21.705 0.173)" fill="none"/>
      <path id="Pfad_17" data-name="Pfad 17" d="M179.4,161.057a35.274,35.274,0,1,1,35.274,35.274A35.273,35.273,0,0,1,179.4,161.057" transform="translate(62.169 43.589)" fill="#2463eb"/>
      <path id="Pfad_18" data-name="Pfad 18" d="M68.75,146.75c-5.738-12.367-18.707-19.977-33.332-19.556a35.274,35.274,0,0,0,1.04,70.533c2.016,0,3.916,0,6.906-.222,18.088-.984,37.3-4.15,52.457,6.23,5.281,3.618,12.61,17.225,15.992,22.836,1.6,2.647,3.233,5.476,4.488,7.569,9.632,16.063,15,27.534,36.063,29.562,12.82,1.235,45.707,1.48,56.555-3.747,31.167-15.021,21.919-62.088-10.977-65.808-26.663-3.014-58.776,2.484-85.865.058-25.063-2.243-33.723-25.386-42.027-44.518" transform="translate(0.41 44.072)" fill="#2463eb"/>
    </g>
  </g>
</svg>
