<svg id="Gruppe_20294" data-name="Gruppe 20294" xmlns="http://www.w3.org/2000/svg" xmlns:xlink="http://www.w3.org/1999/xlink" width="1726.925" height="308.515" viewBox="0 0 1726.925 308.515">
  <defs>
    <clipPath id="clip-path">
      <rect id="Rechteck_5" data-name="Rechteck 5" width="1726.925" height="308.515" fill="#383838"/>
    </clipPath>
  </defs>
  <g id="Gruppe_3" data-name="Gruppe 3" clip-path="url(#clip-path)">
    <path id="Pfad_14" data-name="Pfad 14" d="M71.048,86.717A35.274,35.274,0,1,1,35.774,51.443,35.273,35.273,0,0,1,71.048,86.717" transform="translate(0.173 17.827)" fill="#c9dbfb"/>
    <circle id="Ellipse_1" data-name="Ellipse 1" cx="35.274" cy="35.274" r="35.274" transform="translate(0.673 69.269)" fill="none"/>
    <path id="Pfad_15" data-name="Pfad 15" d="M221.926,118.193c5.738,12.367,18.707,19.977,33.332,19.556a35.274,35.274,0,0,0-1.04-70.533c-2.016,0-3.916,0-6.906.222-18.088.984-37.3,4.15-52.457-6.23-5.281-3.618-12.61-17.225-15.992-22.836-1.6-2.647-3.233-5.476-4.488-7.569-2.5-4.176-4.72-8.042-7.209-11.831a57,57,0,0,0-5.079-6.72C158.282,7.943,151.94,5.3,146,2.552s-4.687-1.022-7.684-1.311C125.492.006,92.606-.239,81.758,4.988,50.591,20.009,59.839,67.076,92.735,70.8c26.663,3.014,58.777-2.484,85.865-.058,25.063,2.243,33.723,25.386,42.027,44.518" transform="translate(21.705 0.173)" fill="#c9dbfb"/>
    <path id="Pfad_16" data-name="Pfad 16" d="M221.926,118.193c5.738,12.367,18.707,19.977,33.332,19.556a35.274,35.274,0,0,0-1.04-70.533c-2.016,0-3.916,0-6.906.222-18.088.984-37.3,4.15-52.457-6.23-5.281-3.618-12.61-17.225-15.992-22.836-1.6-2.647-3.233-5.476-4.488-7.569-9.632-16.063-15-27.534-36.063-29.562C125.492.006,92.606-.239,81.758,4.988,50.591,20.009,59.839,67.076,92.735,70.8c26.663,3.014,58.777-2.484,85.865-.058,25.063,2.243,33.723,25.386,42.027,44.518" transform="translate(21.705 0.173)" fill="none"/>
    <path id="Pfad_17" data-name="Pfad 17" d="M179.4,161.057a35.274,35.274,0,1,1,35.274,35.274A35.273,35.273,0,0,1,179.4,161.057" transform="translate(62.169 43.589)" fill="#2463eb"/>
    <path id="Pfad_18" data-name="Pfad 18" d="M68.75,146.75c-5.738-12.367-18.707-19.977-33.332-19.556a35.274,35.274,0,0,0,1.04,70.533c2.016,0,3.916,0,6.906-.222,18.088-.984,37.3-4.15,52.457,6.23,5.281,3.618,12.61,17.225,15.992,22.836,1.6,2.647,3.233,5.476,4.488,7.569,9.632,16.063,15,27.534,36.063,29.562,12.82,1.235,45.707,1.48,56.555-3.747,31.167-15.021,21.919-62.088-10.977-65.808-26.663-3.014-58.776,2.484-85.865.058-25.063-2.243-33.723-25.386-42.027-44.518" transform="translate(0.41 44.072)" fill="#2463eb"/>
    <path id="Pfad_19" data-name="Pfad 19" d="M448.46,61.552c-2.157-.128-4.817-.128-7.732-.128H324.1V167.913c15.593-22.817,29.031-28.9,38.666-29.792,12.551-1.266,26.243-1.139,26.243-1.139,14.2,0,28.4.127,42.594.127v23.96c-24.213,0-48.3.128-72.386.128-10.017,0-22.313,1.9-31.186,14.579-.634.886-1.266,1.775-1.775,2.662a7.528,7.528,0,0,0-1.013,2.408,16.853,16.853,0,0,0-1.139,6.21v75.431H298.745V36.07H448.46Z" transform="translate(103.527 12.5)" fill="#383838"/>
    <rect id="Rechteck_3" data-name="Rechteck 3" width="25.351" height="226.415" transform="translate(569.146 48.57)" fill="#383838"/>
    <path id="Pfad_20" data-name="Pfad 20" d="M578.413,186.17l24.824,7.094a61.357,61.357,0,0,1-60.667,53.323h-27.1a61.3,61.3,0,0,1-61.175-61.176V143.235a61.325,61.325,0,0,1,61.175-61.3h27.1c4.814.127,26.093,1.015,43.189,17.986a59.787,59.787,0,0,1,15.833,27.23,24.774,24.774,0,0,1-18.236,30.9L479.626,181.991v3.42a35.892,35.892,0,0,0,35.845,35.845h27.1a35.9,35.9,0,0,0,35.845-35.081Zm-98.788-13.927,92.079-37.49a4.886,4.886,0,0,0,3.166-6.967,35.939,35.939,0,0,0-32.3-20.516H515.8a36.176,36.176,0,0,0-36.177,36.177Z" transform="translate(157.431 28.394)" fill="#383838"/>
    <path id="Pfad_21" data-name="Pfad 21" d="M701.832,186.17l24.823,7.094a61.356,61.356,0,0,1-60.667,53.323h-27.1a61.3,61.3,0,0,1-61.175-61.176V143.235a61.324,61.324,0,0,1,61.175-61.3h27.1c4.814.127,26.094,1.015,43.189,17.986a59.792,59.792,0,0,1,15.833,27.23,24.775,24.775,0,0,1-18.237,30.9L603.044,181.991v3.42a35.892,35.892,0,0,0,35.845,35.845h27.1a35.9,35.9,0,0,0,35.845-35.081Zm-98.788-13.927,92.079-37.49a4.886,4.886,0,0,0,3.166-6.967,35.94,35.94,0,0,0-32.3-20.516H639.221a36.176,36.176,0,0,0-36.177,36.177Z" transform="translate(200.2 28.394)" fill="#383838"/>
    <path id="Pfad_22" data-name="Pfad 22" d="M851.219,123.255H761.813v94.469a19.425,19.425,0,0,0,19.424,19.425h24.372a20.334,20.334,0,0,0,20.274-20.274V208.9l25.341,4.178v3.8a45.61,45.61,0,0,1-45.61,45.61H776.257a39.78,39.78,0,0,1-39.78-39.78V193.815a138.294,138.294,0,0,1,19.51-70.571H741.223v.008h-40.1V97.777h35.35v-61.7h25.341v81.008A56.176,56.176,0,0,1,804.051,97.9h47.176v25.347Z" transform="translate(242.969 12.501)" fill="#383838"/>
    <path id="Pfad_23" data-name="Pfad 23" d="M975.027,61.552c-2.157-.128-4.818-.128-7.732-.128H850.665V167.913c15.593-22.817,29.031-28.9,38.664-29.792,12.553-1.266,26.244-1.139,26.244-1.139,14.2,0,28.4.127,42.594.127v23.96c-24.214,0-48.3.128-72.386.128-10.017,0-22.314,1.9-31.186,14.579-.634.886-1.266,1.775-1.775,2.662a7.526,7.526,0,0,0-1.013,2.408,16.843,16.843,0,0,0-1.139,6.21v75.431H825.312V36.07H975.027Z" transform="translate(286.004 12.5)" fill="#383838"/>
    <rect id="Rechteck_4" data-name="Rechteck 4" width="25.351" height="226.415" transform="translate(1278.19 48.57)" fill="#383838"/>
    <path id="Pfad_24" data-name="Pfad 24" d="M1042.1,246.589a61.317,61.317,0,0,1-61.243-61.245V143.188a61.317,61.317,0,0,1,61.243-61.25h27.056a61.317,61.317,0,0,1,61.243,61.25v42.156a61.317,61.317,0,0,1-61.243,61.245Zm-35.906-103.4v42.156a35.947,35.947,0,0,0,35.906,35.907h27.056a35.947,35.947,0,0,0,35.906-35.907V143.188a35.952,35.952,0,0,0-35.906-35.914H1042.1a35.953,35.953,0,0,0-35.906,35.914" transform="translate(339.907 28.395)" fill="#383838"/>
    <path id="Pfad_25" data-name="Pfad 25" d="M1347.076,81.938l-41.195,164.651h-46.521L1221.535,95.27l-37.83,151.319h-46.521L1096.117,81.938h26.115l38.278,153.114,38.277-153.114h45.493l38.279,153.367,38.406-153.367Z" transform="translate(379.849 28.395)" fill="#383838"/>
  </g>
</svg>
